HIERARCHY
ROOT SpineBase
{
  OFFSET 0.000000 0.000000 0.000000
  CHANNELS 6 Xposition Yposition Zposition Zrotation Xrotation Yrotation
  JOINT SpineMid
  {
    OFFSET -0.000000 27.491573 0.000000
    CHANNELS 3 Zrotation Xrotation Yrotation
    JOINT SpineShoulder
    {
      OFFSET -0.092257 20.503138 -0.813644
      CHANNELS 3 Zrotation Xrotation Yrotation
      JOINT Neck
      {
        OFFSET -0.061310 6.809792 -0.593298
        CHANNELS 3 Zrotation Xrotation Yrotation
        JOINT Head
        {
          OFFSET 2.963924 12.958318 1.059217
          CHANNELS 3 Zrotation Xrotation Yrotation
          End Site
          {
            OFFSET 0 0 0
          }
        }
      }
      JOINT ShoulderLeft
      {
        OFFSET -11.601861 -1.929191 -5.168152
        CHANNELS 3 Zrotation Xrotation Yrotation
        JOINT ElbowLeft
        {
          OFFSET -7.723029 -18.320178 -0.941881
          CHANNELS 3 Zrotation Xrotation Yrotation
          JOINT WristLeft
          {
            OFFSET 20.781077 -2.092975 -13.567344
            CHANNELS 3 Zrotation Xrotation Yrotation
            JOINT HandLeft
            {
              OFFSET 7.779506 0.668887 -4.774779
              CHANNELS 3 Zrotation Xrotation Yrotation
              JOINT HandTipLeft
              {
                OFFSET 2.476633 0.312862 -5.817823
                CHANNELS 3 Zrotation Xrotation Yrotation
                End Site
                {
                  OFFSET 0 0 0
                }
              }
              JOINT ThumbLeft
              {
                OFFSET 0.076616 -4.176971 -0.124765
                CHANNELS 3 Zrotation Xrotation Yrotation
                End Site
                {
                  OFFSET 0 0 0
                }
              }
            }
          }
        }
      }
      JOINT ShoulderRight
      {
        OFFSET 14.692438 -2.832611 4.031292
        CHANNELS 3 Zrotation Xrotation Yrotation
        JOINT ElbowRight
        {
          OFFSET -2.738725 -14.936440 -20.065058
          CHANNELS 3 Zrotation Xrotation Yrotation
          JOINT WristRight
          {
            OFFSET -4.601789 -3.970341 -24.451100
            CHANNELS 3 Zrotation Xrotation Yrotation
            JOINT HandRight
            {
              OFFSET -1.498547 -1.384494 -7.793971
              CHANNELS 3 Zrotation Xrotation Yrotation
              JOINT HandTipRight
              {
                OFFSET -0.225628 3.543586 -3.869040
                CHANNELS 3 Zrotation Xrotation Yrotation
                End Site
                {
                  OFFSET 0 0 0
                }
              }
              JOINT ThumbRight
              {
                OFFSET -1.657862 4.174411 -2.445606
                CHANNELS 3 Zrotation Xrotation Yrotation
                End Site
                {
                  OFFSET 0 0 0
                }
              }
            }
          }
        }
      }
    }
  }
  JOINT HipLeft
  {
    OFFSET -5.814884 1.327477 -4.832812
    CHANNELS 3 Zrotation Xrotation Yrotation
    JOINT KneeLeft
    {
      OFFSET -4.298876 -28.745026 -0.379855
      CHANNELS 3 Zrotation Xrotation Yrotation
      JOINT AnkleLeft
      {
        OFFSET -2.389571 -34.886880 6.690959
        CHANNELS 3 Zrotation Xrotation Yrotation
        JOINT FootLeft
        {
          OFFSET 4.086859 -6.053990 -1.553422
          CHANNELS 3 Zrotation Xrotation Yrotation
          End Site
          {
            OFFSET 0 0 0
          }
        }
      }
    }
  }
  JOINT HipRight
  {
    OFFSET 5.407686 0.236010 -1.587816
    CHANNELS 3 Zrotation Xrotation Yrotation
    JOINT KneeRight
    {
      OFFSET -0.916781 -27.298139 2.384622
      CHANNELS 3 Zrotation Xrotation Yrotation
      JOINT AnkleRight
      {
        OFFSET -2.362260 -37.215921 7.260744
        CHANNELS 3 Zrotation Xrotation Yrotation
        JOINT FootRight
        {
          OFFSET -1.116896 -6.659329 -5.912775
          CHANNELS 3 Zrotation Xrotation Yrotation
          End Site
          {
            OFFSET 0 0 0
          }
        }
      }
    }
  }
}
MOTION
Frames: 5
Frame Time: 0.033333
24.279287 71.418010 371.033576 1.776698 -0.539403 -28.304304 -0.369230 0.131029 28.368769 -0.162170 0.186909 0.056369 -9.620900 -2.797151 1.005100 0.000000 0.000000 0.000000 6.425539 4.269856 -2.658742 5.182360 3.033087 -3.591957 -0.702264 -0.644094 -12.666470 -18.099135 -11.624805 -72.796899 0.000000 0.000000 0.000000 0.000000 0.000000 0.000000 13.619951 8.680917 -21.167762 -16.125678 -22.381455 86.060918 -7.789640 -17.485456 48.153810 -46.773280 -48.808787 -89.193080 0.000000 0.000000 0.000000 0.000000 0.000000 0.000000 -3.448946 -2.573812 28.472285 3.412340 -1.572842 0.136689 -2.228400 -1.655050 -3.020260 0.000000 0.000000 0.000000 -1.356772 1.481328 28.367342 -1.341885 -2.914292 0.002185 0.058808 9.859387 -1.396108 0.000000 0.000000 0.000000
24.305878 71.379615 371.045747 1.575732 -0.500515 -28.090067 -0.495501 0.086959 28.140741 -0.237099 0.195620 0.034976 -9.058282 -2.651703 0.986755 0.000000 0.000000 0.000000 6.441555 4.179973 -2.562853 5.762488 3.271924 -3.338796 -0.182217 -0.734894 -17.115038 -11.135044 -7.197505 -58.190308 0.000000 0.000000 0.000000 0.000000 0.000000 0.000000 13.797887 8.982531 -20.841355 -14.533795 -22.854776 83.340444 -6.605056 -18.745669 50.891912 -47.593265 -45.492220 -88.939404 0.000000 0.000000 0.000000 0.000000 0.000000 0.000000 -3.419071 -2.448038 28.240535 3.583704 -1.702937 0.168893 -1.050306 -0.388567 -2.472991 0.000000 0.000000 0.000000 -1.403212 1.464257 28.131463 -0.915159 -3.035292 0.072993 -2.131195 7.927525 0.739530 0.000000 0.000000 0.000000
24.322742 71.345378 371.053260 1.349827 -0.449191 -27.852897 -0.624993 0.080208 27.889104 -0.834667 0.086739 -0.032103 -7.750161 -2.600003 1.038920 0.000000 0.000000 0.000000 6.992173 4.174613 -2.433466 6.205601 3.303115 -3.517776 0.697566 -0.380112 -18.332437 -7.556800 -1.862456 -38.455867 0.000000 0.000000 0.000000 0.000000 0.000000 0.000000 14.377058 9.567456 -20.332487 -12.602549 -23.500805 79.430169 -4.431223 -22.208868 56.731239 -37.561748 -45.507497 -85.053705 0.000000 0.000000 0.000000 0.000000 0.000000 0.000000 -3.347145 -2.329213 27.988341 3.768995 -1.848445 0.205778 -0.615835 0.508150 -2.042332 0.000000 0.000000 0.000000 -1.417541 1.329276 27.871545 -0.422679 -3.047718 0.149279 -3.904219 2.089610 3.069496 0.000000 0.000000 0.000000
24.329869 71.322569 371.069283 1.107625 -0.367036 -27.510458 -1.151909 -0.186121 27.512135 -0.000000 0.000000 0.000000 -7.256403 -2.686739 1.025252 0.000000 0.000000 0.000000 6.745477 4.254507 -2.448181 6.297794 3.085051 -3.679412 2.300072 0.522096 -17.580092 -7.456272 2.768133 -19.071610 0.000000 0.000000 0.000000 0.000000 0.000000 0.000000 13.945079 10.295721 -19.809217 -10.638140 -24.290532 74.777748 -0.074151 -30.682013 62.649453 -20.213733 -43.142552 -77.699278 0.000000 0.000000 0.000000 0.000000 0.000000 0.000000 -3.188132 -2.210469 27.633205 3.879656 -1.983686 0.239126 -0.019370 1.076353 -1.887227 0.000000 0.000000 0.000000 -1.232441 0.901195 27.516642 0.007409 -2.690309 0.198543 -2.132486 3.177758 1.131774 0.000000 0.000000 0.000000
24.340302 71.308676 371.066887 0.899269 -0.314206 -27.131370 -0.943598 -0.130483 27.132761 -0.000000 0.000000 0.000000 -6.990012 -2.624911 1.000102 0.000000 0.000000 0.000000 6.590189 4.342304 -2.475608 6.290544 2.810785 -3.992788 3.880252 1.727295 -14.501584 -8.874190 3.155730 -12.893826 0.000000 0.000000 0.000000 0.000000 0.000000 0.000000 13.477651 11.079900 -19.246833 -8.882230 -25.113016 69.980645 6.584265 -39.896614 68.392358 16.671323 -48.837081 -58.235831 0.000000 0.000000 0.000000 0.000000 0.000000 0.000000 -3.069387 -2.065036 27.240809 3.933463 -2.148430 0.267315 0.436405 1.653990 -1.686290 0.000000 0.000000 0.000000 -1.304854 1.290126 27.116916 0.058617 -3.276895 0.222813 2.503728 7.654359 -3.788463 0.000000 0.000000 0.000000
